<svg xmlns="http://www.w3.org/2000/svg" viewBox="0 0 48 48" fill="none">
  <rect width="48" height="48" rx="12" fill="#1d1d1f"/>
  <path d="M24 10c-1.2 0-2.8.7-3.7 1.6-.9.9-1.6 2.2-1.4 3.5 1.3.1 2.7-.7 3.6-1.6.9-.9 1.6-2.2 1.5-3.5zM28.5 14.2c-2.2-.1-4 1.3-5 1.3-1.1 0-2.7-1.2-4.5-1.2-2.3 0-4.5 1.4-5.7 3.5-2.4 4.2-.6 10.4 1.7 13.8 1.1 1.7 2.5 3.5 4.3 3.4 1.7-.1 2.4-1.1 4.5-1.1 2.1 0 2.7 1.1 4.5 1.1 1.8 0 3-1.6 4.1-3.3 1.3-1.9 1.8-3.7 1.8-3.8-.1 0-3.6-1.4-3.6-5.4 0-3.4 2.8-5 2.9-5.1-1.6-2.4-4.1-2.6-5-2.7z" fill="#f5f5f7"/>
</svg>
